<svg xmlns="http://www.w3.org/2000/svg" height="512" viewBox="0 0 511 511.9" width="512" fill="#484849"><path d="M510.95 150.5c-1.2-27.2-5.598-45.898-11.898-62.102C492.55 71.2 482.55 55.8 469.45 43c-12.8-13-28.3-23.102-45.3-29.5-16.298-6.3-34.9-10.7-62.1-11.898C334.648.3 325.95 0 256.45 0s-78.2.3-105.5 1.5c-27.2 1.2-45.898 5.602-62.098 11.898C71.648 19.898 56.25 29.898 43.45 43c-13 12.8-23.098 28.3-29.5 45.3-6.3 16.3-10.7 34.898-11.898 62.098C.75 177.8.45 186.5.45 256l1.5 105.5c1.2 27.2 5.602 45.898 11.902 62.102C20.352 440.8 30.45 456.2 43.45 469c12.8 13 28.3 23.102 45.3 29.5 16.3 6.3 34.898 10.7 62.102 11.898 27.297 1.203 36 1.5 105.5 1.5l105.5-1.5c27.2-1.2 45.898-5.598 62.098-11.898a130.93 130.93 0 0 0 74.902-74.898c6.297-16.3 10.7-34.902 11.898-62.102 1.2-27.3 1.5-36 1.5-105.5l-1.3-105.5zm-46.098 209c-1.102 25-5.3 38.5-8.8 47.5a84.92 84.92 0 0 1-48.602 48.602c-9 3.5-22.598 7.7-47.5 8.797-27 1.203-35.098 1.5-103.398 1.5s-76.5-.297-103.402-1.5c-25-1.098-38.5-5.297-47.5-8.797C94.55 451.5 84.45 445 76.25 436.5a79.58 79.58 0 0 1-19.102-29.398c-3.5-9-7.7-22.602-8.797-47.5-1.203-27-1.5-35.102-1.5-103.402l1.5-103.398c1.098-25 5.297-38.5 8.797-47.5C61.25 94.2 67.75 84.102 76.352 75.898c8.297-8.5 18.297-15 29.398-19.098 9-3.5 22.602-7.7 47.5-8.8 27-1.2 35.102-1.5 103.398-1.5 68.402 0 76.5.3 103.402 1.5 25 1.102 38.5 5.3 47.5 8.8 11.098 4.098 21.2 10.598 29.398 19.098 8.5 8.3 15 18.3 19.102 29.402 3.5 9 7.7 22.598 8.8 47.5 1.2 27 1.5 35.098 1.5 103.398l-1.5 103.3zm-208.402-235c-72.598 0-131.5 58.898-131.5 131.5s58.902 131.5 131.5 131.5 131.5-58.898 131.5-131.5-58.898-131.5-131.5-131.5zm0 216.8c-47.098 0-85.3-38.2-85.3-85.3s38.203-85.3 85.3-85.3 85.3 38.2 85.3 85.3-38.2 85.3-85.3 85.3zm0 0"/><path d="M423.852 119.3c0 16.953-13.746 30.7-30.703 30.7s-30.7-13.746-30.7-30.7 13.746-30.7 30.7-30.7 30.703 13.742 30.703 30.7zm0 0"/></svg>